# This file uses centimeters as units for non-parametric coordinates.

mtllib p.mtl
g default
v -2.329313 0.000000 3.485981
v -2.328460 -0.005381 3.489786
v -2.328460 -0.005381 2.328460
v -2.329313 0.000000 2.329313
v 2.329312 0.000000 -2.329312
v 2.328460 -0.005381 -2.328460
v 3.489786 -0.005381 -2.328460
v 3.485981 0.000000 -2.329312
v -2.977008 0.719797 2.215308
v -2.517856 1.369136 1.884454
v -1.884454 1.369136 1.884454
v -2.215308 0.719797 2.215308
v 1.884454 1.369136 -2.517855
v 2.215309 0.719798 -2.977007
v 2.215309 0.719798 -2.215309
v 1.884454 1.369136 -1.884454
v -1.838907 2.329314 0.000000
v -1.919521 2.215309 -0.719797
v -0.719796 2.215309 -0.719797
v 0.000000 2.329314 0.000000
v -2.215308 0.719797 2.977007
v 2.977007 0.719798 -2.215309
v -0.719797 2.215309 -1.919521
v 0.000000 2.329314 -1.838908
v -0.719797 2.215309 -0.719798
v -2.153471 1.884454 1.369136
v -1.369136 1.884454 1.369136
v 1.369136 1.884454 -2.153471
v 1.369136 1.884454 -1.369136
v 2.517855 1.369136 -1.884454
v -1.884454 1.369136 2.517856
v -1.919521 2.215309 0.719797
v -0.719797 2.215309 0.719797
v 0.719797 2.215309 -1.919521
v 0.719797 2.215309 -0.719797
v -1.369136 1.884454 2.153471
v 2.153471 1.884454 -1.369136
v -0.719797 2.215309 1.919521
v 1.919521 2.215309 -0.719797
v 0.000000 2.329314 1.838907
v 1.838907 2.329314 0.000000
v 0.719797 2.215309 0.719796
v 0.719797 2.215309 1.919521
v 2.328460 -0.005381 2.328460
v 2.328460 -0.005381 3.489786
v 2.329312 0.000000 3.485981
v 2.329312 0.000000 2.329313
v 3.485981 0.000000 2.329313
v 3.489786 -0.005381 2.328460
v 2.215309 0.719797 2.215308
v 2.977007 0.719797 2.215308
v 3.489786 -0.005381 3.489786
v 0.719798 2.215309 0.719797
v 1.919521 2.215309 0.719797
v 1.369136 1.884454 1.369135
v 1.369136 1.884454 2.153471
v 1.369137 1.884454 1.369136
v 2.153471 1.884454 1.369136
v 1.884454 1.369136 1.884453
v 1.884454 1.369136 2.517856
v 1.884455 1.369136 1.884454
v 2.517856 1.369136 1.884454
v 2.215309 0.719798 2.977007
v 2.215309 0.719798 2.215308
v 3.489786 -0.005381 -3.489786
v 0.000000 4.929921 0.000000
v -3.489786 -0.005381 3.489786
v 2.328460 -0.005381 -3.489786
v -3.489786 -0.005381 2.328460
v 2.329312 0.000000 -3.485981
v -3.485981 0.000000 2.329313
v -2.153470 1.884454 -1.369136
v -1.369135 1.884454 -1.369136
v -1.369136 1.884454 -2.153471
v -1.369136 1.884454 -1.369137
v -2.517855 1.369136 -1.884454
v -1.884453 1.369136 -1.884454
v -1.884454 1.369136 -2.517856
v -1.884454 1.369136 -1.884455
v -2.329313 0.000000 -3.485981
v -2.215308 0.719797 -2.977008
v -2.215308 0.719797 -2.215309
v -2.329313 0.000000 -2.329312
v -2.977007 0.719798 -2.215309
v -2.215308 0.719798 -2.215309
v -3.485981 0.000000 -2.329312
v -3.489785 -0.005381 -2.328460
v -2.328460 -0.005381 -2.328460
v -2.328460 -0.005381 -3.489786
v -3.489785 -0.005381 -3.489786
vt 0.487500 0.655908
vt 0.487593 0.656078
vt 0.487593 0.604139
vt 0.487500 0.604177
vt 0.612500 0.604177
vt 0.612406 0.604139
vt 0.612406 0.656078
vt 0.612500 0.655908
vt 0.475000 0.366855
vt 0.462500 0.387391
vt 0.462500 0.415719
vt 0.475000 0.400922
vt 0.387500 0.387391
vt 0.375000 0.366855
vt 0.375000 0.400922
vt 0.387500 0.415719
vt 0.425000 0.417756
vt 0.412500 0.414151
vt 0.412500 0.467808
vt 0.425000 0.500000
vt 0.475000 0.599078
vt 0.475000 0.633145
vt 0.625000 0.599078
vt 0.625000 0.633145
vt 0.437500 0.414151
vt 0.425000 0.417756
vt 0.437500 0.467808
vt 0.437500 0.467808
vt 0.450000 0.403688
vt 0.450000 0.438766
vt 0.400000 0.403688
vt 0.400000 0.438766
vt 0.387500 0.584281
vt 0.375000 0.599078
vt 0.375000 0.633145
vt 0.387500 0.612609
vt 0.462500 0.584281
vt 0.462500 0.612609
vt 0.437500 0.414151
vt 0.437500 0.467808
vt 0.412500 0.414151
vt 0.412500 0.467808
vt 0.450000 0.561234
vt 0.450000 0.596313
vt 0.400000 0.561234
vt 0.400000 0.596313
vt 0.437500 0.532192
vt 0.437500 0.585849
vt 0.412500 0.532192
vt 0.412500 0.585849
vt 0.425000 0.582244
vt 0.425000 0.582244
vt 0.412500 0.532192
vt 0.412500 0.585849
vt 0.612406 0.604139
vt 0.612406 0.656078
vt 0.612500 0.655908
vt 0.612500 0.604177
vt 0.487500 0.655908
vt 0.487593 0.656078
vt 0.487593 0.604139
vt 0.487500 0.604177
vt 0.475000 0.599078
vt 0.475000 0.633145
vt 0.541597 0.458403
vt 0.500000 0.500000
vt 0.458403 0.458403
vt 0.500000 0.416805
vt 0.437500 0.532192
vt 0.437500 0.532192
vt 0.437500 0.585849
vt 0.400000 0.561234
vt 0.400000 0.596313
vt 0.412500 0.532192
vt 0.450000 0.561234
vt 0.450000 0.561234
vt 0.450000 0.596313
vt 0.387500 0.584281
vt 0.387500 0.612609
vt 0.400000 0.561234
vt 0.462500 0.584281
vt 0.462500 0.584281
vt 0.462500 0.612609
vt 0.625000 0.633145
vt 0.625000 0.599078
vt 0.625000 0.599078
vt 0.375000 0.599078
vt 0.375000 0.633145
vt 0.387500 0.584281
vt 0.475000 0.599078
vt 0.520799 0.500000
vt 0.520715 0.500545
vt 0.513642 0.573468
vt 0.511344 0.639254
vt 0.514047 0.691461
vt 0.521486 0.724980
vt 0.532934 0.736530
vt 0.547269 0.724980
vt 0.563088 0.691461
vt 0.578843 0.639254
vt 0.592991 0.573468
vt 0.604148 0.500545
vt 0.604201 0.500000
vt 0.625000 0.500000
vt 0.500000 1.000000
vt 0.375000 0.500000
vt 0.395799 0.500000
vt 0.395852 0.500545
vt 0.407009 0.573468
vt 0.421157 0.639254
vt 0.436912 0.691461
vt 0.452731 0.724980
vt 0.467066 0.736530
vt 0.478514 0.724980
vt 0.485953 0.691461
vt 0.488656 0.639254
vt 0.486358 0.573468
vt 0.479285 0.500545
vt 0.479201 0.500000
vt 0.708403 0.208403
vt 0.750000 0.250000
vt 0.708403 0.291597
vt 0.666805 0.250000
vt 0.333195 0.250000
vt 0.291597 0.291597
vt 0.250000 0.250000
vt 0.291597 0.208403
vt 0.625000 0.366855
vt 0.612500 0.344092
vt 0.612500 0.395823
vt 0.625000 0.400922
vt 0.487500 0.344092
vt 0.487500 0.395823
vt 0.400000 0.403688
vt 0.400000 0.438766
vt 0.412500 0.467808
vt 0.487593 0.395861
vt 0.487593 0.343922
vt 0.612406 0.343922
vt 0.612406 0.395861
vt 0.450000 0.403687
vt 0.450000 0.438766
vt 0.450000 0.438766
vt 0.387500 0.387391
vt 0.387500 0.415719
vt 0.400000 0.438766
vt 0.462500 0.387391
vt 0.462500 0.415719
vt 0.462500 0.415719
vt 0.487500 0.344092
vt 0.475000 0.366855
vt 0.475000 0.400922
vt 0.487500 0.395823
vt 0.375000 0.366855
vt 0.375000 0.400922
vt 0.387500 0.415719
vt 0.612500 0.344092
vt 0.612406 0.343922
vt 0.612406 0.395861
vt 0.612500 0.395823
vt 0.487593 0.395861
vt 0.487593 0.343922
vt 0.475000 0.400922
vt 0.500000 0.000000
vt 0.541597 0.041597
vt 0.500000 0.083195
vt 0.458403 0.041597
vt 0.625000 0.366855
vt 0.625000 0.400922
vt 0.625000 0.400922
vt 0.250000 0.500000
vt 0.270799 0.500000
vt 0.270988 0.500545
vt 0.300376 0.573468
vt 0.330971 0.639254
vt 0.359777 0.691461
vt 0.383976 0.724980
vt 0.401199 0.736530
vt 0.409759 0.724980
vt 0.408818 0.691461
vt 0.398470 0.639254
vt 0.379726 0.573468
vt 0.354421 0.500545
vt 0.354201 0.500000
vt 0.645799 0.500000
vt 0.645579 0.500545
vt 0.620274 0.573469
vt 0.601530 0.639254
vt 0.591182 0.691461
vt 0.590241 0.724980
vt 0.598801 0.736530
vt 0.616024 0.724980
vt 0.640223 0.691461
vt 0.669029 0.639254
vt 0.699624 0.573468
vt 0.729012 0.500545
vt 0.729201 0.500000
vt 0.750000 0.500000
vn 0.988641 -0.150297 0.000000
vn 0.987688 0.156437 0.000000
vn 0.987688 0.156437 0.000000
vn 0.988118 -0.153700 0.000000
vn 0.000000 -0.153698 0.988118
vn 0.000000 0.156452 0.987686
vn 0.000000 0.156453 0.987686
vn 0.000000 -0.150294 0.988641
vn 0.000000 -0.233496 -0.972358
vn 0.000000 -0.547490 -0.836813
vn 0.000000 -0.627978 -0.778231
vn 0.000000 -0.310941 -0.950429
vn -0.836812 -0.547490 0.000000
vn -0.972358 -0.233495 0.000000
vn -0.950430 -0.310940 0.000000
vn -0.778231 -0.627978 0.000000
vn 0.000000 -1.000000 -0.000000
vn -0.000000 -0.955193 0.295984
vn 0.080359 -0.992661 0.090375
vn 0.000000 -1.000000 0.000000
vn 0.950429 -0.310941 0.000000
vn 0.972358 -0.233496 0.000000
vn 0.000000 -0.310940 0.950430
vn 0.000000 -0.233494 0.972358
vn 0.295985 -0.955193 -0.000000
vn 0.000000 -1.000000 -0.000000
vn 0.135984 -0.971136 0.195968
vn 0.000000 -0.802325 -0.596887
vn 0.000000 -0.856329 -0.516430
vn -0.596886 -0.802326 0.000000
vn -0.516430 -0.856330 0.000000
vn 0.000000 -0.627978 0.778231
vn 0.000000 -0.547490 0.836812
vn 0.778231 -0.627978 0.000000
vn 0.836812 -0.547490 0.000000
vn 0.000000 -0.955193 -0.295985
vn 0.108517 -0.988154 -0.108517
vn -0.295984 -0.955193 0.000000
vn -0.108517 -0.988154 0.108517
vn 0.516430 -0.856330 0.000000
vn 0.596887 -0.802325 0.000000
vn 0.000000 -0.856330 0.516430
vn 0.000000 -0.802326 0.596887
vn 0.295985 -0.955193 0.000000
vn 0.000000 -0.955193 0.295985
vn 0.000000 -1.000000 0.000000
vn 0.000000 -1.000000 -0.000000
vn -0.090375 -0.992661 -0.080359
vn -0.295984 -0.955193 0.000000
vn -0.987683 0.156465 0.000000
vn -0.987683 0.156465 0.000000
vn -0.988641 -0.150294 0.000000
vn -0.988118 -0.153698 0.000000
vn 0.000000 -0.150296 -0.988641
vn 0.000000 0.156452 -0.987686
vn 0.000000 0.156452 -0.987686
vn 0.000000 -0.153700 -0.988118
vn -0.000000 -0.292882 -0.956149
vn -0.000000 -0.233496 -0.972358
vn 0.000000 -1.000000 0.000000
vn 0.000000 -1.000000 0.000000
vn 0.000000 -1.000000 0.000000
vn 0.000000 -1.000000 0.000000
vn -0.195968 -0.971136 -0.135984
vn 0.000000 -0.955193 -0.295985
vn -0.497938 -0.867213 0.000000
vn -0.596887 -0.802326 0.000000
vn 0.000000 -0.852024 -0.523503
vn 0.000000 -0.891007 -0.453991
vn 0.000000 -0.802325 -0.596887
vn -0.766799 -0.641888 0.000000
vn -0.836812 -0.547490 0.000000
vn -0.707107 -0.707107 0.000000
vn -0.000000 -0.623303 -0.781980
vn 0.000000 -0.707106 -0.707107
vn -0.000000 -0.547490 -0.836813
vn -0.972358 -0.233495 0.000000
vn -0.938804 -0.344452 -0.000000
vn -0.987689 -0.156432 0.000000
vn -0.891007 -0.453991 -0.000000
vn -0.000000 -0.453990 -0.891007
vn 0.816497 0.577350 0.000000
vn 0.816497 0.577350 0.000000
vn 0.816497 0.577350 0.000000
vn 0.816497 0.577350 0.000000
vn 0.816497 0.577350 0.000000
vn 0.816497 0.577350 0.000000
vn 0.816497 0.577350 0.000000
vn 0.816497 0.577350 0.000000
vn 0.816497 0.577350 0.000000
vn 0.816497 0.577350 0.000000
vn 0.816497 0.577350 0.000000
vn 0.816497 0.577350 0.000000
vn 0.816497 0.577350 0.000000
vn 0.816497 0.577350 0.000000
vn 0.816497 0.577350 0.000000
vn 0.816497 0.577350 0.000000
vn -0.000000 0.577350 0.816496
vn -0.000000 0.577350 0.816497
vn -0.000000 0.577350 0.816497
vn -0.000000 0.577350 0.816497
vn -0.000000 0.577350 0.816497
vn -0.000000 0.577350 0.816497
vn -0.000000 0.577350 0.816497
vn -0.000000 0.577350 0.816497
vn -0.000000 0.577350 0.816497
vn -0.000000 0.577350 0.816497
vn -0.000000 0.577350 0.816497
vn -0.000000 0.577350 0.816497
vn -0.000000 0.577350 0.816496
vn -0.000000 0.577350 0.816496
vn -0.000000 0.577350 0.816497
vn -0.000000 0.577350 0.816497
vn 0.000000 -1.000000 0.000000
vn 0.000000 -1.000000 0.000000
vn 0.000000 -1.000000 0.000000
vn 0.000000 -1.000000 0.000000
vn 0.000000 -1.000000 0.000000
vn 0.000000 -1.000000 0.000000
vn 0.000000 -1.000000 0.000000
vn 0.000000 -1.000000 0.000000
vn -0.988641 -0.150294 0.000000
vn -0.988118 -0.153698 0.000000
vn 0.000000 -0.150296 -0.988641
vn 0.000000 -0.153700 -0.988118
vn 0.000000 -0.802326 0.596887
vn -0.000000 -0.867213 0.497938
vn 0.000000 0.156452 -0.987686
vn 0.000000 0.156452 -0.987686
vn -0.987682 0.156474 0.000000
vn -0.987682 0.156474 0.000000
vn 0.596887 -0.802326 -0.000000
vn 0.453991 -0.891006 -0.000000
vn 0.523503 -0.852024 -0.000000
vn -0.000000 -0.547490 0.836812
vn -0.000000 -0.641888 0.766799
vn 0.000000 -0.707107 0.707107
vn 0.836812 -0.547490 -0.000000
vn 0.707107 -0.707107 -0.000000
vn 0.781980 -0.623303 -0.000000
vn 0.988641 -0.150296 0.000000
vn 0.972358 -0.233496 -0.000000
vn 0.956149 -0.292882 -0.000000
vn 0.988118 -0.153700 0.000000
vn 0.000000 -0.233495 0.972358
vn -0.000000 -0.344452 0.938804
vn -0.000000 -0.453991 0.891007
vn 0.000000 -0.150294 0.988641
vn 0.000000 0.156452 0.987686
vn 0.000000 0.156452 0.987686
vn 0.000000 -0.153698 0.988118
vn 0.987683 0.156465 0.000000
vn 0.987683 0.156465 0.000000
vn 0.891007 -0.453990 -0.000000
vn 0.000000 -1.000000 0.000000
vn 0.000000 -1.000000 0.000000
vn 0.000000 -1.000000 0.000000
vn 0.000000 -1.000000 0.000000
vn 0.000000 -0.156432 0.987689
vn -0.816497 0.577350 -0.000000
vn -0.816496 0.577350 -0.000000
vn -0.816497 0.577350 -0.000000
vn -0.816496 0.577350 -0.000000
vn -0.816497 0.577350 -0.000000
vn -0.816497 0.577350 -0.000000
vn -0.816497 0.577350 -0.000000
vn -0.816497 0.577350 -0.000000
vn -0.816497 0.577350 -0.000000
vn -0.816496 0.577350 -0.000000
vn -0.816496 0.577350 -0.000000
vn -0.816496 0.577350 -0.000000
vn -0.816497 0.577350 -0.000000
vn -0.816496 0.577350 -0.000000
vn -0.816497 0.577350 -0.000000
vn -0.816497 0.577350 -0.000000
vn 0.000000 0.577350 -0.816496
vn 0.000000 0.577350 -0.816496
vn 0.000000 0.577350 -0.816497
vn 0.000000 0.577350 -0.816496
vn 0.000000 0.577350 -0.816497
vn 0.000000 0.577350 -0.816497
vn 0.000000 0.577350 -0.816497
vn 0.000000 0.577350 -0.816497
vn 0.000000 0.577350 -0.816497
vn 0.000000 0.577350 -0.816496
vn 0.000000 0.577350 -0.816496
vn 0.000000 0.577350 -0.816496
vn 0.000000 0.577350 -0.816497
vn 0.000000 0.577350 -0.816496
vn 0.000000 0.577350 -0.816496
vn 0.000000 0.577350 -0.816496
s 1
g polySurface1
usemtl initialShadingGroup
f 1/1/1 2/2/2 3/3/3 4/4/4
f 5/5/5 6/6/6 7/7/7 8/8/8
f 9/9/9 10/10/10 11/11/11 12/12/12
f 13/13/13 14/14/14 15/15/15 16/16/16
f 17/17/17 18/18/18 19/19/19 20/20/20
f 12/21/21 21/22/22 1/1/1 4/4/4
f 15/23/23 5/5/5 8/8/8 22/24/24
f 23/25/25 24/26/26 20/20/20 19/27/19 25/28/27
f 10/10/10 26/29/28 27/30/29 11/11/11
f 28/31/30 13/13/13 16/16/16 29/32/31
f 16/33/32 15/34/23 22/35/24 30/36/33
f 11/37/34 31/38/35 21/22/22 12/21/21
f 32/39/36 17/17/17 20/20/20 33/40/37
f 24/26/26 34/41/38 35/42/39 20/20/20
f 26/29/28 32/39/36 33/40/37 27/30/29
f 34/41/38 28/31/30 29/32/31 35/42/39
f 27/43/40 36/44/41 31/38/35 11/37/34
f 29/45/42 16/33/32 30/36/33 37/46/43
f 33/47/37 38/48/44 36/44/41 27/43/40
f 35/49/39 29/45/42 37/46/43 39/50/45
f 20/20/20 40/51/46 38/48/44 33/47/37
f 20/20/20 35/49/39 39/50/45 41/52/47
f 42/53/48 43/54/49 40/51/46 20/20/20
f 44/55/50 45/56/51 46/57/52 47/58/53
f 48/59/54 49/60/55 44/61/56 47/62/57
f 47/62/57 50/63/58 51/64/59 48/59/54
s off
f 49/65/60 52/66/61 45/67/62 44/68/63
s 1
f 53/69/64 42/70/48 20/20/20 41/52/47 54/71/65
f 55/72/66 56/73/67 43/54/49 42/53/48 53/74/64
f 57/75/68 55/76/69 53/69/64 54/71/65 58/77/70
f 59/78/71 60/79/72 56/73/67 55/72/66 57/80/73
f 61/81/74 59/82/75 57/75/68 58/77/70 62/83/76
f 47/58/53 46/57/52 63/84/77 64/85/78 50/86/79
f 64/87/78 63/88/77 60/79/72 59/78/71 61/89/80
f 50/63/58 64/90/81 61/81/74 62/83/76 51/64/59
s off
f 52/66/82 49/91/83 48/92/84 51/93/85 62/94/86 58/95/87 54/96/88 41/97/89 39/98/90 37/99/91 30/100/92 22/101/93 8/102/94 7/103/95 65/104/96 66/105/97
f 67/106/98 2/107/99 1/108/100 21/109/101 31/110/102 36/111/103 38/112/104 40/113/105 43/114/106 56/115/107 60/116/108 63/117/109 46/118/110 45/119/111 52/66/112 66/105/113
f 68/120/114 65/121/115 7/122/116 6/123/117
f 3/124/118 2/125/119 67/126/120 69/127/121
s 1
f 14/128/14 70/129/122 5/130/123 15/131/15
f 71/132/124 9/9/9 12/12/12 4/133/125
f 18/18/18 72/134/126 73/135/127 25/136/27 19/19/19
f 4/133/125 3/137/128 69/138/129 71/132/124
f 70/129/122 68/139/130 6/140/131 5/130/123
f 74/141/132 23/25/25 25/28/27 73/142/133 75/143/134
f 72/134/126 76/144/135 77/145/136 75/146/137 73/135/127
f 78/147/138 74/141/132 75/143/134 77/148/139 79/149/140
f 80/150/141 81/151/142 82/152/143 83/153/144
f 76/144/135 84/154/145 85/155/146 79/156/147 77/145/136
f 86/157/148 87/158/149 88/159/150 83/160/151
f 88/161/152 89/162/153 80/150/141 83/153/144
f 81/151/142 78/147/138 79/149/140 85/163/154 82/152/143
s off
f 90/164/155 89/165/156 88/166/157 87/167/158
s 1
f 84/168/145 86/157/148 83/160/151 82/169/159 85/170/146
s off
f 90/171/160 87/172/161 86/173/162 84/174/163 76/175/164 72/176/165 18/177/166 17/178/167 32/179/168 26/180/169 10/181/170 9/182/171 71/183/172 69/184/173 67/106/174 66/105/175
f 65/104/176 68/185/177 70/186/178 14/187/179 13/188/180 28/189/181 34/190/182 24/191/183 23/192/184 74/193/185 78/194/186 81/195/187 80/196/188 89/197/189 90/198/190 66/105/191
